# xmcd
#
# Track frame offsets:
#	150
#	36993
#	53562
#	70221
#	104338
#	135245
#	168082
#	189703
#
# Disc length: 2962 seconds
#
# Revision: 1
# Processed by: cddbd v1.5.1PL2 Copyright (c) Steve Scherf et al.
# Submitted via: EasyCDDAExtractor 7.0.6.1
#
DISCID=650b9008
DTITLE=Bobby Lounge - Ten Foot Woman
DYEAR=2006
DGENRE=Blues
TTITLE0=Muddy River
TTITLE1=I Don't Care
TTITLE2=Do Your Duty
TTITLE3=Take Me To Angola
TTITLE4=Don't Pity Me
TTITLE5=Pass Me Not O Gentle Savior
TTITLE6=Moan You Moaners
TTITLE7=Ten Foot Woman
EXTD=
EXTT0=
EXTT1=
EXTT2=
EXTT3=
EXTT4=
EXTT5=
EXTT6=
EXTT7=
PLAYORDER=
